<svg width="527" height="149" viewBox="0 0 527 149" fill="none" xmlns="http://www.w3.org/2000/svg">
<path d="M146.811 41.01L173.431 109.76C174.531 112.327 175.668 114.123 176.841 115.15C178.088 116.177 179.188 116.727 180.141 116.8V119C177.794 118.853 174.971 118.78 171.671 118.78C168.444 118.707 165.144 118.67 161.771 118.67C158.251 118.67 154.914 118.707 151.761 118.78C148.608 118.78 146.078 118.853 144.171 119V116.8C147.911 116.653 150.294 116.03 151.321 114.93C152.348 113.757 152.128 111.3 150.661 107.56L132.401 57.62L134.601 54.32L118.541 95.79C116.854 100.19 115.828 103.747 115.461 106.46C115.094 109.173 115.278 111.263 116.011 112.73C116.744 114.197 117.881 115.223 119.421 115.81C121.034 116.397 122.941 116.727 125.141 116.8V119C122.574 118.853 120.191 118.78 117.991 118.78C115.864 118.707 113.554 118.67 111.061 118.67C109.594 118.67 108.091 118.707 106.551 118.78C105.084 118.78 103.801 118.853 102.701 119V116.8C104.314 116.507 105.928 115.48 107.541 113.72C109.228 111.96 110.878 108.917 112.491 104.59L137.241 41.01C138.708 41.1567 140.284 41.23 141.971 41.23C143.731 41.23 145.344 41.1567 146.811 41.01ZM152.531 87.32V89.52H119.751L120.851 87.32H152.531ZM223.557 60.48C229.13 60.48 233.75 62.79 237.417 67.41C241.157 71.9567 243.027 78.9967 243.027 88.53C243.027 96.45 241.853 102.793 239.507 107.56C237.233 112.253 234.153 115.59 230.267 117.57C226.453 119.55 222.237 120.54 217.617 120.54C214.903 120.54 212.373 120.21 210.027 119.55C207.753 118.89 205.663 117.68 203.757 115.92L205.187 114.82C206.36 115.993 207.68 116.873 209.147 117.46C210.613 117.973 212.043 118.23 213.437 118.23C217.177 118.23 219.927 115.957 221.687 111.41C223.52 106.79 224.437 99.8233 224.437 90.51C224.437 84.13 224.07 79.1433 223.337 75.55C222.677 71.9567 221.687 69.4267 220.367 67.96C219.12 66.42 217.617 65.65 215.857 65.65C213.583 65.65 211.493 66.5667 209.587 68.4C207.753 70.16 206.763 72.58 206.617 75.66L206.397 71.04C207.863 67.52 210.1 64.88 213.107 63.12C216.113 61.36 219.597 60.48 223.557 60.48ZM206.727 32.98V118.01C204.6 117.35 202.437 117.093 200.237 117.24C198.037 117.313 196.02 117.68 194.187 118.34C192.353 118.927 190.887 119.733 189.787 120.76L188.137 119.77C188.503 118.743 188.723 117.717 188.797 116.69C188.87 115.663 188.907 114.637 188.907 113.61V46.18C188.907 42.88 188.43 40.46 187.477 38.92C186.597 37.3067 184.873 36.5 182.307 36.5V34.19C184.653 34.41 186.927 34.52 189.127 34.52C192.5 34.52 195.653 34.41 198.587 34.19C201.52 33.8967 204.233 33.4933 206.727 32.98ZM280.402 60.48C285.902 60.48 290.705 61.47 294.812 63.45C298.992 65.3567 302.218 68.51 304.492 72.91C306.838 77.31 308.012 83.1767 308.012 90.51C308.012 97.8433 306.838 103.71 304.492 108.11C302.218 112.51 298.992 115.7 294.812 117.68C290.705 119.587 285.902 120.54 280.402 120.54C274.975 120.54 270.172 119.587 265.992 117.68C261.885 115.7 258.658 112.51 256.312 108.11C253.965 103.71 252.792 97.8433 252.792 90.51C252.792 83.1767 253.965 77.31 256.312 72.91C258.658 68.51 261.885 65.3567 265.992 63.45C270.172 61.47 274.975 60.48 280.402 60.48ZM280.402 62.68C277.835 62.68 275.672 64.88 273.912 69.28C272.225 73.6067 271.382 80.6833 271.382 90.51C271.382 100.337 272.225 107.45 273.912 111.85C275.672 116.177 277.835 118.34 280.402 118.34C283.042 118.34 285.205 116.177 286.892 111.85C288.578 107.45 289.422 100.337 289.422 90.51C289.422 80.6833 288.578 73.6067 286.892 69.28C285.205 64.88 283.042 62.68 280.402 62.68ZM372.836 60.81V107.01C372.836 110.31 373.313 112.767 374.266 114.38C375.293 115.92 377.016 116.69 379.436 116.69V119C377.163 118.78 374.889 118.67 372.616 118.67C369.243 118.67 366.089 118.78 363.156 119C360.296 119.22 357.583 119.623 355.016 120.21V111.3C353.256 114.6 350.836 116.983 347.756 118.45C344.749 119.843 341.303 120.54 337.416 120.54C334.189 120.54 331.586 120.137 329.606 119.33C327.699 118.523 326.233 117.46 325.206 116.14C324.033 114.82 323.189 113.06 322.676 110.86C322.163 108.587 321.906 105.617 321.906 101.95V74.01C321.906 70.71 321.429 68.29 320.476 66.75C319.523 65.1367 317.799 64.33 315.306 64.33V62.02C317.653 62.24 319.926 62.35 322.126 62.35C325.499 62.35 328.653 62.24 331.586 62.02C334.519 61.7267 337.233 61.3233 339.726 60.81V107.23C339.726 108.917 339.909 110.347 340.276 111.52C340.643 112.693 341.266 113.61 342.146 114.27C343.026 114.93 344.199 115.26 345.666 115.26C347.353 115.26 348.893 114.82 350.286 113.94C351.679 113.06 352.816 111.85 353.696 110.31C354.576 108.697 355.016 106.9 355.016 104.92V74.01C355.016 70.71 354.539 68.29 353.586 66.75C352.633 65.1367 350.909 64.33 348.416 64.33V62.02C350.763 62.24 353.036 62.35 355.236 62.35C358.609 62.35 361.763 62.24 364.696 62.02C367.629 61.7267 370.343 61.3233 372.836 60.81ZM410.154 44.09V62.02H422.034V64.22H410.154V109.21C410.154 111.043 410.484 112.363 411.144 113.17C411.804 113.903 412.794 114.27 414.114 114.27C415.214 114.27 416.351 113.903 417.524 113.17C418.771 112.437 419.908 111.19 420.934 109.43L422.694 110.53C421.301 113.537 419.358 115.957 416.864 117.79C414.444 119.623 411.254 120.54 407.294 120.54C404.874 120.54 402.711 120.21 400.804 119.55C398.971 118.963 397.431 118.047 396.184 116.8C394.571 115.187 393.508 113.207 392.994 110.86C392.554 108.44 392.334 105.323 392.334 101.51V64.22H383.534V62.02H392.334V48.27C395.781 48.27 398.934 47.94 401.794 47.28C404.728 46.62 407.514 45.5567 410.154 44.09Z" fill="#7797EE" fill-opacity="0.15"/>
<path d="M184.608 73.624L200.096 113.624C200.736 115.117 201.398 116.163 202.08 116.76C202.806 117.357 203.446 117.677 204 117.72V119C202.635 118.915 200.992 118.872 199.072 118.872C197.195 118.829 195.275 118.808 193.312 118.808C191.264 118.808 189.323 118.829 187.488 118.872C185.654 118.872 184.182 118.915 183.072 119V117.72C185.248 117.635 186.635 117.272 187.232 116.632C187.83 115.949 187.702 114.52 186.848 112.344L176.224 83.288L177.504 81.368L168.16 105.496C167.179 108.056 166.582 110.125 166.368 111.704C166.155 113.283 166.262 114.499 166.688 115.352C167.115 116.205 167.776 116.803 168.672 117.144C169.611 117.485 170.72 117.677 172 117.72V119C170.507 118.915 169.12 118.872 167.84 118.872C166.603 118.829 165.259 118.808 163.808 118.808C162.955 118.808 162.08 118.829 161.184 118.872C160.331 118.872 159.584 118.915 158.944 119V117.72C159.883 117.549 160.822 116.952 161.76 115.928C162.742 114.904 163.702 113.133 164.64 110.616L179.04 73.624C179.894 73.7093 180.811 73.752 181.792 73.752C182.816 73.752 183.755 73.7093 184.608 73.624ZM187.936 100.568V101.848H168.864L169.504 100.568H187.936ZM229.26 84.952C232.503 84.952 235.191 86.296 237.324 88.984C239.5 91.6293 240.588 95.7253 240.588 101.272C240.588 105.88 239.906 109.571 238.54 112.344C237.218 115.075 235.426 117.016 233.164 118.168C230.946 119.32 228.492 119.896 225.804 119.896C224.226 119.896 222.754 119.704 221.388 119.32C220.066 118.936 218.85 118.232 217.74 117.208L218.572 116.568C219.255 117.251 220.023 117.763 220.876 118.104C221.73 118.403 222.562 118.552 223.372 118.552C225.548 118.552 227.148 117.229 228.172 114.584C229.239 111.896 229.772 107.843 229.772 102.424C229.772 98.712 229.559 95.8107 229.132 93.72C228.748 91.6293 228.172 90.1573 227.404 89.304C226.679 88.408 225.804 87.96 224.78 87.96C223.458 87.96 222.242 88.4933 221.132 89.56C220.066 90.584 219.49 91.992 219.404 93.784L219.276 91.096C220.13 89.048 221.431 87.512 223.18 86.488C224.93 85.464 226.956 84.952 229.26 84.952ZM219.468 68.952V118.424C218.231 118.04 216.972 117.891 215.692 117.976C214.412 118.019 213.239 118.232 212.172 118.616C211.106 118.957 210.252 119.427 209.612 120.024L208.652 119.448C208.866 118.851 208.994 118.253 209.036 117.656C209.079 117.059 209.1 116.461 209.1 115.864V76.632C209.1 74.712 208.823 73.304 208.268 72.408C207.756 71.4693 206.754 71 205.26 71V69.656C206.626 69.784 207.948 69.848 209.228 69.848C211.191 69.848 213.026 69.784 214.732 69.656C216.439 69.4853 218.018 69.2507 219.468 68.952ZM262.334 84.952C265.534 84.952 268.328 85.528 270.718 86.68C273.15 87.7893 275.027 89.624 276.35 92.184C277.715 94.744 278.398 98.1573 278.398 102.424C278.398 106.691 277.715 110.104 276.35 112.664C275.027 115.224 273.15 117.08 270.718 118.232C268.328 119.341 265.534 119.896 262.334 119.896C259.176 119.896 256.382 119.341 253.95 118.232C251.56 117.08 249.683 115.224 248.318 112.664C246.952 110.104 246.27 106.691 246.27 102.424C246.27 98.1573 246.952 94.744 248.318 92.184C249.683 89.624 251.56 87.7893 253.95 86.68C256.382 85.528 259.176 84.952 262.334 84.952ZM262.334 86.232C260.84 86.232 259.582 87.512 258.558 90.072C257.576 92.5893 257.086 96.7067 257.086 102.424C257.086 108.141 257.576 112.28 258.558 114.84C259.582 117.357 260.84 118.616 262.334 118.616C263.87 118.616 265.128 117.357 266.11 114.84C267.091 112.28 267.582 108.141 267.582 102.424C267.582 96.7067 267.091 92.5893 266.11 90.072C265.128 87.512 263.87 86.232 262.334 86.232ZM316.114 85.144V112.024C316.114 113.944 316.391 115.373 316.946 116.312C317.543 117.208 318.546 117.656 319.954 117.656V119C318.631 118.872 317.308 118.808 315.986 118.808C314.023 118.808 312.188 118.872 310.482 119C308.818 119.128 307.239 119.363 305.746 119.704V114.52C304.722 116.44 303.314 117.827 301.522 118.68C299.772 119.491 297.767 119.896 295.506 119.896C293.628 119.896 292.114 119.661 290.962 119.192C289.852 118.723 288.999 118.104 288.402 117.336C287.719 116.568 287.228 115.544 286.93 114.264C286.631 112.941 286.482 111.213 286.482 109.08V92.824C286.482 90.904 286.204 89.496 285.65 88.6C285.095 87.6613 284.092 87.192 282.642 87.192V85.848C284.007 85.976 285.33 86.04 286.61 86.04C288.572 86.04 290.407 85.976 292.114 85.848C293.82 85.6773 295.399 85.4427 296.85 85.144V112.152C296.85 113.133 296.956 113.965 297.17 114.648C297.383 115.331 297.746 115.864 298.258 116.248C298.77 116.632 299.452 116.824 300.306 116.824C301.287 116.824 302.183 116.568 302.994 116.056C303.804 115.544 304.466 114.84 304.978 113.944C305.49 113.005 305.746 111.96 305.746 110.808V92.824C305.746 90.904 305.468 89.496 304.914 88.6C304.359 87.6613 303.356 87.192 301.906 87.192V85.848C303.271 85.976 304.594 86.04 305.874 86.04C307.836 86.04 309.671 85.976 311.378 85.848C313.084 85.6773 314.663 85.4427 316.114 85.144ZM337.826 75.416V85.848H344.738V87.128H337.826V113.304C337.826 114.371 338.018 115.139 338.402 115.608C338.786 116.035 339.362 116.248 340.13 116.248C340.77 116.248 341.432 116.035 342.114 115.608C342.84 115.181 343.501 114.456 344.098 113.432L345.122 114.072C344.312 115.821 343.181 117.229 341.73 118.296C340.322 119.363 338.466 119.896 336.162 119.896C334.754 119.896 333.496 119.704 332.386 119.32C331.32 118.979 330.424 118.445 329.698 117.72C328.76 116.781 328.141 115.629 327.842 114.264C327.586 112.856 327.458 111.043 327.458 108.824V87.128H322.338V85.848H327.458V77.848C329.464 77.848 331.298 77.656 332.962 77.272C334.669 76.888 336.29 76.2693 337.826 75.416Z" fill="#4B5A69"/>
<path d="M60 147H446" stroke="#4B5A69" stroke-width="3" stroke-dasharray="8 8"/>
</svg>
