<svg width="527" height="265" viewBox="0 0 527 265" fill="none" xmlns="http://www.w3.org/2000/svg">
<path d="M101.679 39.69C106.225 39.69 109.745 40.1667 112.239 41.12C114.732 42 116.859 42.9533 118.619 43.98C119.499 44.4933 120.195 44.8967 120.709 45.19C121.295 45.41 121.845 45.52 122.359 45.52C123.092 45.52 123.605 45.1167 123.899 44.31C124.265 43.5033 124.559 42.2933 124.779 40.68H127.309C127.235 42.1467 127.125 43.87 126.979 45.85C126.905 47.83 126.832 50.47 126.759 53.77C126.759 56.9967 126.759 61.2867 126.759 66.64H124.229C123.935 62.68 123.019 58.8667 121.479 55.2C119.939 51.5333 117.812 48.49 115.099 46.07C112.459 43.65 109.195 42.44 105.309 42.44C101.935 42.44 99.1488 43.3933 96.9488 45.3C94.7488 47.1333 93.6488 49.7733 93.6488 53.22C93.6488 56.0067 94.3455 58.4267 95.7388 60.48C97.1322 62.46 99.2222 64.4767 102.009 66.53C104.869 68.5833 108.462 71.1133 112.789 74.12C116.235 76.3933 119.315 78.6667 122.029 80.94C124.742 83.2133 126.905 85.78 128.519 88.64C130.205 91.5 131.049 94.9467 131.049 98.98C131.049 103.82 129.729 107.853 127.089 111.08C124.449 114.233 120.965 116.617 116.639 118.23C112.312 119.77 107.582 120.54 102.449 120.54C97.6822 120.54 93.8688 120.1 91.0088 119.22C88.2222 118.34 85.8388 117.423 83.8588 116.47C82.2455 115.443 80.9988 114.93 80.1188 114.93C79.3855 114.93 78.8355 115.333 78.4688 116.14C78.1755 116.947 77.9188 118.157 77.6988 119.77H75.1688C75.3155 117.937 75.3888 115.81 75.3888 113.39C75.4622 110.897 75.4988 107.707 75.4988 103.82C75.5722 99.9333 75.6088 94.9833 75.6088 88.97H78.1388C78.4322 93.9567 79.2388 98.6133 80.5588 102.94C81.9522 107.267 84.0422 110.787 86.8288 113.5C89.6888 116.14 93.4655 117.46 98.1588 117.46C100.799 117.46 103.109 117.02 105.089 116.14C107.069 115.26 108.645 113.977 109.819 112.29C110.992 110.53 111.579 108.403 111.579 105.91C111.579 102.83 110.882 100.153 109.489 97.88C108.095 95.6067 106.189 93.48 103.769 91.5C101.349 89.4467 98.5255 87.3933 95.2988 85.34C91.8522 83.0667 88.6255 80.7567 85.6188 78.41C82.6122 76.0633 80.1922 73.46 78.3588 70.6C76.5988 67.6667 75.7188 64.1467 75.7188 60.04C75.7188 55.3467 76.9288 51.4967 79.3488 48.49C81.7688 45.4833 84.9588 43.2833 88.9188 41.89C92.9522 40.4233 97.2055 39.69 101.679 39.69ZM168.741 60.48C175.194 60.48 180.254 62.3867 183.921 66.2C187.588 70.0133 189.421 76.2833 189.421 85.01H154.111L154.001 82.92H174.461C174.608 79.3267 174.461 76.0267 174.021 73.02C173.581 69.94 172.848 67.4833 171.821 65.65C170.868 63.8167 169.584 62.9 167.971 62.9C165.771 62.9 163.901 64.4767 162.361 67.63C160.821 70.7833 159.868 76.1367 159.501 83.69L159.941 84.46C159.794 85.2667 159.721 86.11 159.721 86.99C159.721 87.7967 159.721 88.6767 159.721 89.63C159.721 94.69 160.381 98.7233 161.701 101.73C163.094 104.737 164.818 106.863 166.871 108.11C168.924 109.357 171.051 109.98 173.251 109.98C174.498 109.98 175.891 109.797 177.431 109.43C178.971 109.063 180.584 108.293 182.271 107.12C183.958 105.947 185.571 104.223 187.111 101.95L188.981 102.61C188.174 105.47 186.781 108.293 184.801 111.08C182.894 113.793 180.438 116.067 177.431 117.9C174.424 119.66 170.794 120.54 166.541 120.54C161.701 120.54 157.374 119.55 153.561 117.57C149.748 115.517 146.704 112.327 144.431 108C142.231 103.6 141.131 97.88 141.131 90.84C141.131 83.8733 142.341 78.1533 144.761 73.68C147.181 69.2067 150.481 65.9067 154.661 63.78C158.841 61.58 163.534 60.48 168.741 60.48ZM235.631 60.48C238.125 60.48 240.105 61.03 241.571 62.13C243.038 63.1567 244.101 64.5133 244.761 66.2C245.421 67.8133 245.751 69.4267 245.751 71.04C245.751 74.0467 244.871 76.4667 243.111 78.3C241.425 80.1333 239.188 81.05 236.401 81.05C233.468 81.05 231.231 80.39 229.691 79.07C228.151 77.6767 227.381 75.8433 227.381 73.57C227.381 71.2967 227.858 69.4267 228.811 67.96C229.838 66.4933 231.085 65.2467 232.551 64.22C231.451 64.0733 230.388 64.22 229.361 64.66C228.188 64.9533 227.088 65.5033 226.061 66.31C225.035 67.1167 224.155 68.07 223.421 69.17C222.688 70.27 222.101 71.48 221.661 72.8C221.295 74.0467 221.111 75.33 221.111 76.65V107.67C221.111 111.19 221.881 113.573 223.421 114.82C225.035 116.067 227.565 116.69 231.011 116.69V119C229.325 118.927 226.831 118.853 223.531 118.78C220.231 118.633 216.821 118.56 213.301 118.56C210.148 118.56 206.958 118.633 203.731 118.78C200.578 118.853 198.231 118.927 196.691 119V116.69C199.111 116.69 200.798 116.14 201.751 115.04C202.778 113.94 203.291 111.85 203.291 108.77V74.01C203.291 70.71 202.815 68.29 201.861 66.75C200.908 65.1367 199.185 64.33 196.691 64.33V62.02C199.038 62.24 201.311 62.35 203.511 62.35C206.811 62.35 209.928 62.24 212.861 62.02C215.868 61.7267 218.618 61.3233 221.111 60.81V69.83C221.991 67.9233 223.128 66.2733 224.521 64.88C225.988 63.4867 227.638 62.4233 229.471 61.69C231.378 60.8833 233.431 60.48 235.631 60.48ZM305.001 62.02V64.33C303.608 64.77 302.288 65.6867 301.041 67.08C299.794 68.4733 298.548 70.8933 297.301 74.34L281.791 119.11C280.324 118.963 278.858 118.89 277.391 118.89C275.924 118.89 274.421 118.963 272.881 119.11L253.521 70.49C252.421 67.7033 251.284 65.98 250.111 65.32C248.938 64.66 247.948 64.33 247.141 64.33V62.02C249.781 62.1667 252.531 62.3133 255.391 62.46C258.251 62.5333 261.368 62.57 264.741 62.57C267.014 62.57 269.398 62.5333 271.891 62.46C274.458 62.3133 276.841 62.1667 279.041 62.02V64.33C277.648 64.33 276.364 64.4033 275.191 64.55C274.091 64.6967 273.284 65.1 272.771 65.76C272.331 66.42 272.368 67.63 272.881 69.39L285.421 103.6L284.211 105.47L291.581 84.24C293.121 79.7667 293.781 76.1 293.561 73.24C293.341 70.38 292.498 68.2167 291.031 66.75C289.638 65.2833 287.768 64.4767 285.421 64.33V62.02C286.521 62.0933 287.731 62.1667 289.051 62.24C290.444 62.3133 291.801 62.3867 293.121 62.46C294.514 62.46 295.651 62.46 296.531 62.46C297.924 62.46 299.464 62.4233 301.151 62.35C302.838 62.2767 304.121 62.1667 305.001 62.02ZM324.435 33.31C327.882 33.31 330.558 34.08 332.465 35.62C334.445 37.16 335.435 39.3967 335.435 42.33C335.435 45.2633 334.445 47.5 332.465 49.04C330.558 50.58 327.882 51.35 324.435 51.35C320.988 51.35 318.275 50.58 316.295 49.04C314.388 47.5 313.435 45.2633 313.435 42.33C313.435 39.3967 314.388 37.16 316.295 35.62C318.275 34.08 320.988 33.31 324.435 33.31ZM334.115 60.81V108.77C334.115 111.85 334.592 113.94 335.545 115.04C336.572 116.14 338.295 116.69 340.715 116.69V119C339.248 118.927 337.085 118.853 334.225 118.78C331.365 118.633 328.468 118.56 325.535 118.56C322.602 118.56 319.595 118.633 316.515 118.78C313.508 118.853 311.235 118.927 309.695 119V116.69C312.115 116.69 313.802 116.14 314.755 115.04C315.782 113.94 316.295 111.85 316.295 108.77V74.01C316.295 70.71 315.818 68.29 314.865 66.75C313.912 65.1367 312.188 64.33 309.695 64.33V62.02C312.042 62.24 314.315 62.35 316.515 62.35C319.815 62.35 322.932 62.24 325.865 62.02C328.872 61.7267 331.622 61.3233 334.115 60.81ZM376.271 60.48C379.351 60.48 382.101 60.81 384.521 61.47C386.941 62.0567 388.921 62.8267 390.461 63.78C392.368 64.9533 393.908 66.4567 395.081 68.29C396.255 70.1233 396.841 72.25 396.841 74.67C396.841 77.4567 395.925 79.8033 394.091 81.71C392.258 83.5433 389.948 84.46 387.161 84.46C384.301 84.46 382.028 83.6167 380.341 81.93C378.728 80.2433 377.921 78.08 377.921 75.44C377.921 72.8733 378.728 70.71 380.341 68.95C381.955 67.19 383.861 66.0167 386.061 65.43C385.475 64.8433 384.705 64.3667 383.751 64C382.871 63.6333 381.808 63.45 380.561 63.45C378.068 63.45 375.978 64.1833 374.291 65.65C372.605 67.0433 371.211 68.9867 370.111 71.48C369.085 73.9 368.315 76.65 367.801 79.73C367.361 82.7367 367.141 85.8533 367.141 89.08C367.141 94.5067 367.838 98.76 369.231 101.84C370.698 104.847 372.495 106.973 374.621 108.22C376.821 109.393 379.058 109.98 381.331 109.98C382.505 109.98 383.861 109.797 385.401 109.43C386.941 109.063 388.555 108.293 390.241 107.12C392.001 105.947 393.651 104.187 395.191 101.84L397.061 102.5C396.255 105.36 394.898 108.183 392.991 110.97C391.085 113.757 388.628 116.067 385.621 117.9C382.615 119.66 378.948 120.54 374.621 120.54C369.781 120.54 365.381 119.55 361.421 117.57C357.535 115.59 354.418 112.4 352.071 108C349.725 103.6 348.551 97.8433 348.551 90.73C348.551 83.8367 349.761 78.19 352.181 73.79C354.601 69.3167 357.901 65.98 362.081 63.78C366.335 61.58 371.065 60.48 376.271 60.48ZM433.471 60.48C439.925 60.48 444.985 62.3867 448.651 66.2C452.318 70.0133 454.151 76.2833 454.151 85.01H418.841L418.731 82.92H439.191C439.338 79.3267 439.191 76.0267 438.751 73.02C438.311 69.94 437.578 67.4833 436.551 65.65C435.598 63.8167 434.315 62.9 432.701 62.9C430.501 62.9 428.631 64.4767 427.091 67.63C425.551 70.7833 424.598 76.1367 424.231 83.69L424.671 84.46C424.525 85.2667 424.451 86.11 424.451 86.99C424.451 87.7967 424.451 88.6767 424.451 89.63C424.451 94.69 425.111 98.7233 426.431 101.73C427.825 104.737 429.548 106.863 431.601 108.11C433.655 109.357 435.781 109.98 437.981 109.98C439.228 109.98 440.621 109.797 442.161 109.43C443.701 109.063 445.315 108.293 447.001 107.12C448.688 105.947 450.301 104.223 451.841 101.95L453.711 102.61C452.905 105.47 451.511 108.293 449.531 111.08C447.625 113.793 445.168 116.067 442.161 117.9C439.155 119.66 435.525 120.54 431.271 120.54C426.431 120.54 422.105 119.55 418.291 117.57C414.478 115.517 411.435 112.327 409.161 108C406.961 103.6 405.861 97.88 405.861 90.84C405.861 83.8733 407.071 78.1533 409.491 73.68C411.911 69.2067 415.211 65.9067 419.391 63.78C423.571 61.58 428.265 60.48 433.471 60.48Z" fill="#7797EE" fill-opacity="0.15"/>
<path d="M142.772 72.856C145.417 72.856 147.465 73.1333 148.916 73.688C150.367 74.2 151.604 74.7547 152.628 75.352C153.14 75.6507 153.545 75.8853 153.844 76.056C154.185 76.184 154.505 76.248 154.804 76.248C155.231 76.248 155.529 76.0133 155.7 75.544C155.913 75.0747 156.084 74.3707 156.212 73.432H157.684C157.641 74.2853 157.577 75.288 157.492 76.44C157.449 77.592 157.407 79.128 157.364 81.048C157.364 82.9253 157.364 85.4213 157.364 88.536H155.892C155.721 86.232 155.188 84.0133 154.292 81.88C153.396 79.7467 152.159 77.976 150.58 76.568C149.044 75.16 147.145 74.456 144.884 74.456C142.921 74.456 141.3 75.0107 140.02 76.12C138.74 77.1867 138.1 78.7227 138.1 80.728C138.1 82.3493 138.505 83.7573 139.316 84.952C140.127 86.104 141.343 87.2773 142.964 88.472C144.628 89.6667 146.719 91.1387 149.236 92.888C151.241 94.2107 153.033 95.5333 154.612 96.856C156.191 98.1787 157.449 99.672 158.388 101.336C159.369 103 159.86 105.005 159.86 107.352C159.86 110.168 159.092 112.515 157.556 114.392C156.02 116.227 153.993 117.613 151.476 118.552C148.959 119.448 146.207 119.896 143.22 119.896C140.447 119.896 138.228 119.64 136.564 119.128C134.943 118.616 133.556 118.083 132.404 117.528C131.465 116.931 130.74 116.632 130.228 116.632C129.801 116.632 129.481 116.867 129.268 117.336C129.097 117.805 128.948 118.509 128.82 119.448H127.348C127.433 118.381 127.476 117.144 127.476 115.736C127.519 114.285 127.54 112.429 127.54 110.168C127.583 107.907 127.604 105.027 127.604 101.528H129.076C129.247 104.429 129.716 107.139 130.484 109.656C131.295 112.173 132.511 114.221 134.132 115.8C135.796 117.336 137.993 118.104 140.724 118.104C142.26 118.104 143.604 117.848 144.756 117.336C145.908 116.824 146.825 116.077 147.508 115.096C148.191 114.072 148.532 112.835 148.532 111.384C148.532 109.592 148.127 108.035 147.316 106.712C146.505 105.389 145.396 104.152 143.988 103C142.58 101.805 140.937 100.611 139.06 99.416C137.055 98.0933 135.177 96.7493 133.428 95.384C131.679 94.0187 130.271 92.504 129.204 90.84C128.18 89.1333 127.668 87.0853 127.668 84.696C127.668 81.9653 128.372 79.7253 129.78 77.976C131.188 76.2267 133.044 74.9467 135.348 74.136C137.695 73.2827 140.169 72.856 142.772 72.856ZM181.79 84.952C185.545 84.952 188.489 86.0613 190.622 88.28C192.755 90.4987 193.822 94.1467 193.822 99.224H173.278L173.214 98.008H185.118C185.203 95.9173 185.118 93.9973 184.862 92.248C184.606 90.456 184.179 89.0267 183.582 87.96C183.027 86.8933 182.281 86.36 181.342 86.36C180.062 86.36 178.974 87.2773 178.078 89.112C177.182 90.9467 176.627 94.0613 176.414 98.456L176.67 98.904C176.585 99.3733 176.542 99.864 176.542 100.376C176.542 100.845 176.542 101.357 176.542 101.912C176.542 104.856 176.926 107.203 177.694 108.952C178.505 110.701 179.507 111.939 180.702 112.664C181.897 113.389 183.134 113.752 184.414 113.752C185.139 113.752 185.95 113.645 186.846 113.432C187.742 113.219 188.681 112.771 189.662 112.088C190.643 111.405 191.582 110.403 192.478 109.08L193.566 109.464C193.097 111.128 192.286 112.771 191.134 114.392C190.025 115.971 188.595 117.293 186.846 118.36C185.097 119.384 182.985 119.896 180.51 119.896C177.694 119.896 175.177 119.32 172.958 118.168C170.739 116.973 168.969 115.117 167.646 112.6C166.366 110.04 165.726 106.712 165.726 102.616C165.726 98.5627 166.43 95.2347 167.838 92.632C169.246 90.0293 171.166 88.1093 173.598 86.872C176.03 85.592 178.761 84.952 181.79 84.952ZM220.708 84.952C222.159 84.952 223.311 85.272 224.164 85.912C225.017 86.5093 225.636 87.2987 226.02 88.28C226.404 89.2187 226.596 90.1573 226.596 91.096C226.596 92.8453 226.084 94.2533 225.06 95.32C224.079 96.3867 222.777 96.92 221.156 96.92C219.449 96.92 218.148 96.536 217.252 95.768C216.356 94.9573 215.908 93.8907 215.908 92.568C215.908 91.2453 216.185 90.1573 216.74 89.304C217.337 88.4507 218.063 87.7253 218.916 87.128C218.276 87.0427 217.657 87.128 217.06 87.384C216.377 87.5547 215.737 87.8747 215.14 88.344C214.543 88.8133 214.031 89.368 213.604 90.008C213.177 90.648 212.836 91.352 212.58 92.12C212.367 92.8453 212.26 93.592 212.26 94.36V112.408C212.26 114.456 212.708 115.843 213.604 116.568C214.543 117.293 216.015 117.656 218.02 117.656V119C217.039 118.957 215.588 118.915 213.668 118.872C211.748 118.787 209.764 118.744 207.716 118.744C205.881 118.744 204.025 118.787 202.148 118.872C200.313 118.915 198.948 118.957 198.052 119V117.656C199.46 117.656 200.441 117.336 200.996 116.696C201.593 116.056 201.892 114.84 201.892 113.048V92.824C201.892 90.904 201.615 89.496 201.06 88.6C200.505 87.6613 199.503 87.192 198.052 87.192V85.848C199.417 85.976 200.74 86.04 202.02 86.04C203.94 86.04 205.753 85.976 207.46 85.848C209.209 85.6773 210.809 85.4427 212.26 85.144V90.392C212.772 89.2827 213.433 88.3227 214.244 87.512C215.097 86.7013 216.057 86.0827 217.124 85.656C218.233 85.1867 219.428 84.952 220.708 84.952ZM261.069 85.848V87.192C260.258 87.448 259.49 87.9813 258.765 88.792C258.039 89.6027 257.314 91.0107 256.589 93.016L247.565 119.064C246.711 118.979 245.858 118.936 245.005 118.936C244.151 118.936 243.277 118.979 242.381 119.064L231.117 90.776C230.477 89.1547 229.815 88.152 229.133 87.768C228.45 87.384 227.874 87.192 227.405 87.192V85.848C228.941 85.9333 230.541 86.0187 232.205 86.104C233.869 86.1467 235.682 86.168 237.645 86.168C238.967 86.168 240.354 86.1467 241.805 86.104C243.298 86.0187 244.685 85.9333 245.965 85.848V87.192C245.154 87.192 244.407 87.2347 243.725 87.32C243.085 87.4053 242.615 87.64 242.317 88.024C242.061 88.408 242.082 89.112 242.381 90.136L249.677 110.04L248.973 111.128L253.261 98.776C254.157 96.1733 254.541 94.04 254.413 92.376C254.285 90.712 253.794 89.4533 252.941 88.6C252.13 87.7467 251.042 87.2773 249.677 87.192V85.848C250.317 85.8907 251.021 85.9333 251.789 85.976C252.599 86.0187 253.389 86.0613 254.157 86.104C254.967 86.104 255.629 86.104 256.141 86.104C256.951 86.104 257.847 86.0827 258.829 86.04C259.81 85.9973 260.557 85.9333 261.069 85.848ZM272.375 69.144C274.381 69.144 275.938 69.592 277.047 70.488C278.199 71.384 278.775 72.6853 278.775 74.392C278.775 76.0987 278.199 77.4 277.047 78.296C275.938 79.192 274.381 79.64 272.375 79.64C270.37 79.64 268.791 79.192 267.639 78.296C266.53 77.4 265.975 76.0987 265.975 74.392C265.975 72.6853 266.53 71.384 267.639 70.488C268.791 69.592 270.37 69.144 272.375 69.144ZM278.007 85.144V113.048C278.007 114.84 278.285 116.056 278.84 116.696C279.437 117.336 280.44 117.656 281.847 117.656V119C280.994 118.957 279.736 118.915 278.071 118.872C276.408 118.787 274.722 118.744 273.016 118.744C271.309 118.744 269.559 118.787 267.767 118.872C266.018 118.915 264.695 118.957 263.799 119V117.656C265.207 117.656 266.189 117.336 266.743 116.696C267.341 116.056 267.639 114.84 267.639 113.048V92.824C267.639 90.904 267.362 89.496 266.807 88.6C266.253 87.6613 265.25 87.192 263.799 87.192V85.848C265.165 85.976 266.487 86.04 267.767 86.04C269.687 86.04 271.501 85.976 273.207 85.848C274.957 85.6773 276.557 85.4427 278.007 85.144ZM302.535 84.952C304.327 84.952 305.927 85.144 307.335 85.528C308.743 85.8693 309.895 86.3173 310.791 86.872C311.9 87.5547 312.796 88.4293 313.479 89.496C314.162 90.5627 314.503 91.8 314.503 93.208C314.503 94.8293 313.97 96.1947 312.903 97.304C311.836 98.3707 310.492 98.904 308.871 98.904C307.207 98.904 305.884 98.4133 304.903 97.432C303.964 96.4507 303.495 95.192 303.495 93.656C303.495 92.1627 303.964 90.904 304.903 89.88C305.842 88.856 306.951 88.1733 308.231 87.832C307.89 87.4907 307.442 87.2133 306.887 87C306.375 86.7867 305.756 86.68 305.031 86.68C303.58 86.68 302.364 87.1067 301.383 87.96C300.402 88.7707 299.591 89.9013 298.951 91.352C298.354 92.76 297.906 94.36 297.607 96.152C297.351 97.9013 297.223 99.7147 297.223 101.592C297.223 104.749 297.628 107.224 298.439 109.016C299.292 110.765 300.338 112.003 301.575 112.728C302.855 113.411 304.156 113.752 305.479 113.752C306.162 113.752 306.951 113.645 307.847 113.432C308.743 113.219 309.682 112.771 310.663 112.088C311.687 111.405 312.647 110.381 313.543 109.016L314.631 109.4C314.162 111.064 313.372 112.707 312.263 114.328C311.154 115.949 309.724 117.293 307.975 118.36C306.226 119.384 304.092 119.896 301.575 119.896C298.759 119.896 296.199 119.32 293.895 118.168C291.634 117.016 289.82 115.16 288.455 112.6C287.09 110.04 286.407 106.691 286.407 102.552C286.407 98.5413 287.111 95.256 288.519 92.696C289.927 90.0933 291.847 88.152 294.279 86.872C296.754 85.592 299.506 84.952 302.535 84.952ZM335.815 84.952C339.57 84.952 342.514 86.0613 344.647 88.28C346.78 90.4987 347.847 94.1467 347.847 99.224H327.303L327.239 98.008H339.143C339.228 95.9173 339.143 93.9973 338.887 92.248C338.631 90.456 338.204 89.0267 337.607 87.96C337.052 86.8933 336.306 86.36 335.367 86.36C334.087 86.36 332.999 87.2773 332.103 89.112C331.207 90.9467 330.652 94.0613 330.439 98.456L330.695 98.904C330.61 99.3733 330.567 99.864 330.567 100.376C330.567 100.845 330.567 101.357 330.567 101.912C330.567 104.856 330.951 107.203 331.719 108.952C332.53 110.701 333.532 111.939 334.727 112.664C335.922 113.389 337.159 113.752 338.439 113.752C339.164 113.752 339.975 113.645 340.871 113.432C341.767 113.219 342.706 112.771 343.687 112.088C344.668 111.405 345.607 110.403 346.503 109.08L347.591 109.464C347.122 111.128 346.311 112.771 345.159 114.392C344.05 115.971 342.62 117.293 340.871 118.36C339.122 119.384 337.01 119.896 334.535 119.896C331.719 119.896 329.202 119.32 326.983 118.168C324.764 116.973 322.994 115.117 321.671 112.6C320.391 110.04 319.751 106.712 319.751 102.616C319.751 98.5627 320.455 95.2347 321.863 92.632C323.271 90.0293 325.191 88.1093 327.623 86.872C330.055 85.592 332.786 84.952 335.815 84.952ZM365.569 84.952C367.446 84.952 369.068 85.1653 370.433 85.592C371.798 86.0187 372.801 86.424 373.441 86.808C374.934 87.7467 375.83 87.1493 376.129 85.016H377.473C377.388 86.2533 377.324 87.7467 377.281 89.496C377.238 91.2027 377.217 93.5067 377.217 96.408H375.873C375.702 94.8293 375.318 93.272 374.721 91.736C374.166 90.2 373.334 88.9413 372.225 87.96C371.116 86.936 369.665 86.424 367.873 86.424C366.721 86.424 365.74 86.7653 364.929 87.448C364.161 88.1307 363.777 89.0693 363.777 90.264C363.777 91.544 364.161 92.6747 364.929 93.656C365.697 94.6373 366.678 95.576 367.873 96.472C369.11 97.368 370.348 98.328 371.585 99.352C372.95 100.376 374.166 101.421 375.233 102.488C376.342 103.512 377.217 104.643 377.857 105.88C378.54 107.075 378.881 108.525 378.881 110.232C378.881 112.152 378.305 113.837 377.153 115.288C376.001 116.739 374.486 117.869 372.609 118.68C370.732 119.491 368.641 119.896 366.337 119.896C364.929 119.896 363.692 119.747 362.625 119.448C361.601 119.192 360.748 118.851 360.065 118.424C359.425 118.125 358.849 117.869 358.337 117.656C357.868 117.443 357.398 117.293 356.929 117.208C356.502 117.165 356.14 117.357 355.841 117.784C355.542 118.211 355.308 118.765 355.137 119.448H353.793C353.878 118.083 353.942 116.419 353.985 114.456C354.028 112.493 354.049 109.891 354.049 106.648H355.393C355.649 108.952 356.118 110.979 356.801 112.728C357.526 114.477 358.486 115.864 359.681 116.888C360.876 117.869 362.284 118.36 363.905 118.36C364.63 118.36 365.292 118.232 365.889 117.976C366.529 117.677 367.041 117.229 367.425 116.632C367.852 116.035 368.065 115.267 368.065 114.328C368.065 112.451 367.468 110.893 366.273 109.656C365.078 108.376 363.606 106.989 361.857 105.496C360.492 104.344 359.212 103.213 358.017 102.104C356.865 100.995 355.905 99.7787 355.137 98.456C354.412 97.1333 354.049 95.64 354.049 93.976C354.049 92.056 354.582 90.4347 355.649 89.112C356.758 87.7467 358.188 86.7227 359.937 86.04C361.686 85.3147 363.564 84.952 365.569 84.952Z" fill="#4B5A69"/>
<path d="M55.6999 189.028C55.6999 187.492 56.1799 186.076 57.1399 184.78C58.0999 183.46 59.4079 182.428 61.0639 181.684L61.2439 182.26C60.2119 182.764 59.3239 183.448 58.5799 184.312C57.8359 185.152 57.4279 186.088 57.3559 187.12C57.6679 186.784 58.0159 186.532 58.3999 186.364C58.7839 186.172 59.1799 186.076 59.5879 186.076C60.2839 186.076 60.7999 186.244 61.1359 186.58C61.4959 186.916 61.6759 187.396 61.6759 188.02C61.6759 188.668 61.5079 189.268 61.1719 189.82C60.8599 190.372 60.4279 190.816 59.8759 191.152C59.3479 191.464 58.7479 191.62 58.0759 191.62C57.3079 191.62 56.7199 191.416 56.3119 191.008C55.9039 190.576 55.6999 189.916 55.6999 189.028ZM48.6439 189.028C48.6439 187.492 49.1119 186.076 50.0479 184.78C51.0079 183.46 52.3159 182.428 53.9719 181.684L54.1519 182.26C53.1439 182.764 52.2559 183.448 51.4879 184.312C50.7439 185.152 50.3359 186.088 50.2639 187.12C50.5759 186.784 50.9239 186.532 51.3079 186.364C51.7159 186.172 52.1239 186.076 52.5319 186.076C53.2039 186.076 53.7199 186.244 54.0799 186.58C54.4399 186.916 54.6199 187.396 54.6199 188.02C54.6199 188.668 54.4519 189.268 54.1159 189.82C53.8039 190.372 53.3719 190.816 52.8199 191.152C52.2679 191.464 51.6679 191.62 51.0199 191.62C50.2519 191.62 49.6639 191.416 49.2559 191.008C48.8479 190.576 48.6439 189.916 48.6439 189.028ZM75.9589 204.184C75.7429 205.048 75.6829 205.696 75.7789 206.128C75.8989 206.56 76.1749 206.848 76.6069 206.992C77.0629 207.136 77.6989 207.232 78.5149 207.28L78.3349 208C77.8789 207.976 77.3029 207.964 76.6069 207.964C75.9349 207.94 75.2029 207.928 74.4109 207.928C73.6189 207.904 72.8629 207.892 72.1429 207.892C70.9909 207.892 69.8869 207.904 68.8309 207.928C67.7989 207.928 66.9709 207.952 66.3469 208L66.5269 207.28C67.3429 207.232 67.9789 207.136 68.4349 206.992C68.8909 206.848 69.2509 206.56 69.5149 206.128C69.7789 205.696 70.0189 205.048 70.2349 204.184L72.7189 194.32L75.0589 196.588L77.5429 195.904L78.7669 193.024L75.9589 204.184ZM87.5509 182.692C87.1669 182.692 86.8069 182.764 86.4709 182.908C86.1349 183.028 85.7749 183.232 85.3909 183.52C84.7189 184 83.9029 184.876 82.9429 186.148C81.9829 187.396 81.0109 189.04 80.0269 191.08C79.0429 193.096 78.1309 195.496 77.2909 198.28L72.3949 198.46C72.2989 197.332 72.1669 196.144 71.9989 194.896C71.8309 193.648 71.6269 192.424 71.3869 191.224C71.1469 190 70.8589 188.896 70.5229 187.912C70.2109 186.904 69.8509 186.112 69.4429 185.536C69.0349 184.96 68.5669 184.672 68.0389 184.672C67.6069 184.672 67.2589 184.84 66.9949 185.176C66.7309 185.488 66.5269 185.884 66.3829 186.364L65.6269 188.632C65.6269 188.632 65.4949 188.632 65.2309 188.632C64.9669 188.632 64.8349 188.632 64.8349 188.632L65.7349 185.86C66.2149 184.444 66.8869 183.448 67.7509 182.872C68.6389 182.296 69.6589 182.008 70.8109 182.008C72.4429 182.008 73.7029 182.512 74.5909 183.52C75.4789 184.528 76.1389 185.992 76.5709 187.912C77.0029 189.832 77.3749 192.148 77.6869 194.86C78.5029 192.556 79.4149 190.516 80.4229 188.74C81.4309 186.94 82.4869 185.44 83.5909 184.24C84.1429 183.64 84.7789 183.124 85.4989 182.692C86.2189 182.236 86.9989 182.008 87.8389 182.008C88.9429 182.008 89.7829 182.32 90.3589 182.944C90.9349 183.568 91.2109 184.312 91.1869 185.176C91.1629 186.064 90.8509 186.82 90.2509 187.444C89.6509 188.044 88.8709 188.344 87.9109 188.344C87.1189 188.344 86.5069 188.14 86.0749 187.732C85.6429 187.324 85.4269 186.796 85.4269 186.148C85.4509 185.332 85.7149 184.636 86.2189 184.06C86.7469 183.46 87.3949 183.052 88.1629 182.836C88.0909 182.788 88.0069 182.752 87.9109 182.728C87.8149 182.704 87.6949 182.692 87.5509 182.692ZM96.0688 189.604C95.5168 189.604 94.9288 189.94 94.3048 190.612C93.7048 191.26 93.1048 192.136 92.5048 193.24C91.9288 194.344 91.4008 195.58 90.9208 196.948C90.4648 198.316 90.0928 199.732 89.8048 201.196C89.5408 202.636 89.4088 204.016 89.4088 205.336C89.4088 206.2 89.5048 206.824 89.6968 207.208C89.9128 207.592 90.2248 207.784 90.6328 207.784C91.1848 207.784 91.7608 207.472 92.3608 206.848C92.9608 206.2 93.5488 205.336 94.1248 204.256C94.7008 203.176 95.2168 201.964 95.6728 200.62C96.1528 199.252 96.5368 197.836 96.8248 196.372C97.1128 194.908 97.2568 193.492 97.2568 192.124C97.2568 191.116 97.1488 190.444 96.9328 190.108C96.7408 189.772 96.4528 189.604 96.0688 189.604ZM84.5848 202.564C84.5848 201.46 84.7288 200.284 85.0168 199.036C85.3288 197.788 85.7968 196.564 86.4208 195.364C87.0448 194.164 87.8128 193.084 88.7248 192.124C89.6608 191.14 90.7528 190.36 92.0008 189.784C93.2728 189.184 94.6888 188.884 96.2488 188.884C98.0968 188.884 99.5248 189.388 100.533 190.396C101.565 191.404 102.081 192.88 102.081 194.824C102.081 195.928 101.925 197.104 101.613 198.352C101.325 199.6 100.869 200.824 100.245 202.024C99.6208 203.224 98.8408 204.316 97.9048 205.3C96.9928 206.26 95.9008 207.04 94.6288 207.64C93.3808 208.216 91.9768 208.504 90.4168 208.504C88.5688 208.504 87.1288 208 86.0968 206.992C85.0888 205.984 84.5848 204.508 84.5848 202.564ZM118.076 195.364C117.188 198.004 116.336 200.188 115.52 201.916C114.704 203.62 113.9 204.952 113.108 205.912C112.34 206.848 111.548 207.52 110.732 207.928C109.916 208.312 109.052 208.504 108.14 208.504C107.132 208.504 106.352 208.288 105.8 207.856C105.272 207.424 104.972 206.8 104.9 205.984C104.852 205.168 105.008 204.196 105.368 203.068L108.86 192.448C109.1 191.752 109.148 191.284 109.004 191.044C108.884 190.78 108.68 190.648 108.392 190.648C108.08 190.648 107.732 190.828 107.348 191.188C106.964 191.524 106.556 192.292 106.124 193.492L105.476 195.22H104.792L105.692 192.592C106.052 191.584 106.496 190.816 107.024 190.288C107.576 189.76 108.152 189.4 108.752 189.208C109.376 188.992 109.964 188.884 110.516 188.884C111.596 188.884 112.4 189.124 112.928 189.604C113.456 190.06 113.744 190.72 113.792 191.584C113.84 192.424 113.672 193.432 113.288 194.608L110.048 204.328C109.52 205.912 109.64 206.704 110.408 206.704C110.864 206.704 111.38 206.404 111.956 205.804C112.532 205.204 113.132 204.376 113.756 203.32C114.404 202.264 115.04 201.028 115.664 199.612C116.288 198.196 116.888 196.672 117.464 195.04C118.04 193.408 118.544 191.74 118.976 190.036L118.076 195.364ZM119.84 204.94C119.672 205.54 119.6 205.996 119.624 206.308C119.648 206.596 119.852 206.74 120.236 206.74C120.668 206.74 121.064 206.536 121.424 206.128C121.808 205.696 122.18 204.952 122.54 203.896L123.224 202.06H123.908L122.936 204.796C122.624 205.732 122.204 206.476 121.676 207.028C121.172 207.556 120.608 207.928 119.984 208.144C119.384 208.384 118.76 208.504 118.112 208.504C117.464 208.504 116.912 208.396 116.456 208.18C116.024 207.964 115.688 207.664 115.448 207.28C115.208 206.824 115.1 206.284 115.124 205.66C115.172 205.012 115.292 204.28 115.484 203.464L119.12 189.388C120.104 189.364 121.028 189.316 121.892 189.244C122.78 189.172 123.596 189.052 124.34 188.884L119.84 204.94ZM162.88 182.512C162.52 183.448 162.148 184.588 161.764 185.932C161.38 187.252 160.984 188.872 160.576 190.792H159.784C159.976 189.568 160.06 188.5 160.036 187.588C160.036 186.676 159.844 185.884 159.46 185.212C159.004 184.372 158.416 183.772 157.696 183.412C156.976 183.052 156.148 182.872 155.212 182.872C154.012 182.872 152.86 183.196 151.756 183.844C150.652 184.492 149.632 185.392 148.696 186.544C147.76 187.672 146.932 188.98 146.212 190.468C145.516 191.932 144.964 193.504 144.556 195.184C144.172 196.864 143.98 198.568 143.98 200.296C143.98 202.744 144.412 204.544 145.276 205.696C146.164 206.848 147.352 207.424 148.84 207.424C149.728 207.424 150.664 207.22 151.648 206.812C152.632 206.404 153.496 205.816 154.24 205.048C154.888 204.376 155.44 203.608 155.896 202.744C156.376 201.88 156.904 200.752 157.48 199.36H158.272C157.672 201.544 157.204 203.308 156.868 204.652C156.556 205.972 156.316 207.088 156.148 208H155.356C155.428 207.496 155.464 207.088 155.464 206.776C155.464 206.272 155.368 205.972 155.176 205.876C154.984 205.78 154.684 205.876 154.276 206.164C153.628 206.596 152.944 206.992 152.224 207.352C151.528 207.712 150.772 207.988 149.956 208.18C149.14 208.396 148.228 208.504 147.22 208.504C143.956 208.504 141.532 207.736 139.948 206.2C138.364 204.64 137.572 202.432 137.572 199.576C137.572 197.896 137.836 196.216 138.364 194.536C138.916 192.856 139.696 191.272 140.704 189.784C141.736 188.272 142.96 186.94 144.376 185.788C145.816 184.612 147.412 183.688 149.164 183.016C150.916 182.344 152.788 182.008 154.78 182.008C155.764 182.008 156.58 182.116 157.228 182.332C157.9 182.548 158.464 182.836 158.92 183.196C159.376 183.556 159.784 183.94 160.144 184.348C160.456 184.708 160.768 184.744 161.08 184.456C161.392 184.168 161.74 183.52 162.124 182.512H162.88ZM167.829 206.56C168.213 206.56 168.633 206.356 169.089 205.948C169.545 205.54 170.013 204.952 170.493 204.184C170.973 203.392 171.441 202.432 171.897 201.304C172.353 200.176 172.773 198.868 173.157 197.38L172.365 201.304C171.765 203.08 171.105 204.496 170.385 205.552C169.665 206.608 168.897 207.364 168.081 207.82C167.265 208.276 166.413 208.504 165.525 208.504C164.181 208.504 163.173 208.108 162.501 207.316C161.829 206.524 161.493 205.444 161.493 204.076C161.493 202.78 161.709 201.424 162.141 200.008C162.597 198.592 163.197 197.224 163.941 195.904C164.709 194.584 165.561 193.396 166.497 192.34C167.457 191.284 168.465 190.444 169.521 189.82C170.601 189.196 171.657 188.884 172.689 188.884C173.481 188.884 174.093 189.196 174.525 189.82C174.957 190.444 175.089 191.416 174.921 192.736L174.525 192.952C174.645 192.088 174.597 191.416 174.381 190.936C174.189 190.456 173.853 190.216 173.373 190.216C172.893 190.216 172.353 190.492 171.753 191.044C171.177 191.596 170.601 192.352 170.025 193.312C169.449 194.272 168.909 195.364 168.405 196.588C167.925 197.788 167.541 199.06 167.253 200.404C166.965 201.724 166.821 203.032 166.821 204.328C166.821 205.144 166.905 205.72 167.073 206.056C167.241 206.392 167.493 206.56 167.829 206.56ZM175.461 189.424C176.493 189.4 177.429 189.352 178.269 189.28C179.109 189.184 179.913 189.052 180.681 188.884L175.965 204.94C175.893 205.252 175.833 205.552 175.785 205.84C175.761 206.104 175.797 206.32 175.893 206.488C176.013 206.656 176.205 206.74 176.469 206.74C176.781 206.74 177.129 206.56 177.513 206.2C177.897 205.816 178.293 205.048 178.701 203.896L179.349 202.168H180.033L179.133 204.796C178.797 205.78 178.365 206.536 177.837 207.064C177.309 207.592 176.745 207.964 176.145 208.18C175.545 208.396 174.957 208.504 174.381 208.504C173.133 208.504 172.245 208.132 171.717 207.388C171.357 206.86 171.189 206.212 171.213 205.444C171.261 204.652 171.429 203.752 171.717 202.744L175.461 189.424ZM187.975 208H182.899L187.255 192.448C187.375 192.112 187.447 191.812 187.471 191.548C187.519 191.26 187.495 191.044 187.399 190.9C187.303 190.732 187.123 190.648 186.859 190.648C186.427 190.648 186.031 190.852 185.671 191.26C185.335 191.644 184.963 192.388 184.555 193.492L183.871 195.328H183.187L184.159 192.592C184.639 191.224 185.263 190.264 186.031 189.712C186.823 189.16 187.747 188.884 188.803 188.884C189.667 188.884 190.327 189.04 190.783 189.352C191.239 189.64 191.539 190.036 191.683 190.54C191.851 191.044 191.911 191.596 191.863 192.196C191.839 192.772 191.755 193.348 191.611 193.924L187.975 208ZM189.127 201.916C190.063 199.3 190.927 197.152 191.719 195.472C192.535 193.768 193.327 192.436 194.095 191.476C194.887 190.516 195.691 189.844 196.507 189.46C197.323 189.076 198.199 188.884 199.135 188.884C200.287 188.884 201.115 189.136 201.619 189.64C202.123 190.144 202.375 190.816 202.375 191.656C202.375 192.472 202.219 193.36 201.907 194.32L198.379 204.94C198.139 205.612 198.079 206.08 198.199 206.344C198.319 206.608 198.535 206.74 198.847 206.74C199.159 206.74 199.507 206.572 199.891 206.236C200.275 205.876 200.683 205.096 201.115 203.896L201.763 202.168H202.447L201.547 204.796C201.211 205.804 200.767 206.572 200.215 207.1C199.687 207.628 199.111 207.988 198.487 208.18C197.887 208.396 197.299 208.504 196.723 208.504C196.027 208.504 195.439 208.396 194.959 208.18C194.479 207.988 194.107 207.7 193.843 207.316C193.531 206.836 193.375 206.236 193.375 205.516C193.399 204.772 193.591 203.86 193.951 202.78L197.191 193.06C197.335 192.676 197.431 192.304 197.479 191.944C197.527 191.584 197.515 191.284 197.443 191.044C197.371 190.804 197.167 190.684 196.831 190.684C196.375 190.684 195.859 190.984 195.283 191.584C194.707 192.16 194.095 192.976 193.447 194.032C192.823 195.064 192.199 196.276 191.575 197.668C190.951 199.06 190.351 200.548 189.775 202.132C189.199 203.692 188.683 205.3 188.227 206.956L189.127 201.916ZM242.746 177.112C243.61 177.112 244.282 177.376 244.762 177.904C245.266 178.408 245.518 178.984 245.518 179.632C245.518 180.4 245.29 181.072 244.834 181.648C244.402 182.224 243.802 182.692 243.034 183.052C242.314 183.388 241.45 183.652 240.442 183.844C239.434 184.012 238.294 184.096 237.022 184.096C236.134 184.096 235.174 184.06 234.142 183.988C233.134 183.892 232.09 183.784 231.01 183.664C229.954 183.544 228.91 183.448 227.878 183.376C226.87 183.28 225.922 183.232 225.034 183.232C224.218 183.232 223.438 183.28 222.694 183.376C221.95 183.448 221.374 183.604 220.966 183.844C221.59 184.012 222.106 184.36 222.514 184.888C222.922 185.416 223.126 186.04 223.126 186.76C223.126 187.576 222.862 188.284 222.334 188.884C221.83 189.484 221.158 189.784 220.318 189.784C219.478 189.784 218.83 189.508 218.374 188.956C217.942 188.38 217.726 187.708 217.726 186.94C217.726 186.364 217.882 185.752 218.194 185.104C218.53 184.432 219.154 183.88 220.066 183.448C220.642 183.16 221.242 182.956 221.866 182.836C222.49 182.716 223.078 182.644 223.63 182.62C224.182 182.596 224.602 182.584 224.89 182.584C226.378 182.584 227.83 182.656 229.246 182.8C230.662 182.92 232.042 183.052 233.386 183.196C234.754 183.316 236.074 183.376 237.346 183.376C238.282 183.376 239.062 183.328 239.686 183.232C240.334 183.136 240.922 182.992 241.45 182.8L241.378 183.088C241.018 182.8 240.682 182.392 240.37 181.864C240.058 181.336 239.902 180.736 239.902 180.064C239.902 179.2 240.154 178.492 240.658 177.94C241.186 177.388 241.882 177.112 242.746 177.112ZM229.426 183.196C229.426 183.196 229.606 183.22 229.966 183.268C230.35 183.292 230.818 183.328 231.37 183.376C231.922 183.424 232.474 183.472 233.026 183.52C233.578 183.568 234.046 183.616 234.43 183.664C234.814 183.688 235.006 183.7 235.006 183.7L229.642 203.824C229.426 204.688 229.342 205.372 229.39 205.876C229.462 206.356 229.726 206.704 230.182 206.92C230.662 207.112 231.382 207.232 232.342 207.28L232.198 208C231.454 207.952 230.482 207.928 229.282 207.928C228.082 207.904 226.834 207.892 225.538 207.892C224.29 207.892 223.09 207.904 221.938 207.928C220.81 207.928 219.898 207.952 219.202 208L219.346 207.28C220.354 207.232 221.146 207.112 221.722 206.92C222.322 206.704 222.778 206.356 223.09 205.876C223.426 205.372 223.702 204.688 223.918 203.824L229.426 183.196ZM242.763 208H237.687L242.079 192.448C242.247 191.8 242.295 191.344 242.223 191.08C242.175 190.792 241.995 190.648 241.683 190.648C241.251 190.648 240.855 190.864 240.495 191.296C240.135 191.704 239.751 192.436 239.343 193.492L238.659 195.328H237.975L238.947 192.592C239.307 191.632 239.739 190.888 240.243 190.36C240.747 189.832 241.311 189.46 241.935 189.244C242.583 189.004 243.243 188.884 243.915 188.884C244.683 188.884 245.271 189.04 245.679 189.352C246.087 189.64 246.363 190.036 246.507 190.54C246.651 191.044 246.699 191.596 246.651 192.196C246.627 192.772 246.543 193.348 246.399 193.924L242.763 208ZM251.979 189.676C251.499 189.676 250.983 189.82 250.431 190.108C249.879 190.396 249.315 190.912 248.739 191.656C248.163 192.4 247.551 193.432 246.903 194.752C246.279 196.072 245.631 197.764 244.959 199.828C244.311 201.868 243.639 204.34 242.943 207.244L243.735 202.384C244.503 199.744 245.199 197.56 245.823 195.832C246.447 194.104 247.071 192.736 247.695 191.728C248.343 190.696 249.015 189.964 249.711 189.532C250.431 189.1 251.247 188.884 252.159 188.884C253.095 188.884 253.815 189.16 254.319 189.712C254.823 190.264 255.075 190.96 255.075 191.8C255.075 192.472 254.919 193.096 254.607 193.672C254.319 194.224 253.911 194.68 253.383 195.04C252.879 195.376 252.303 195.544 251.655 195.544C250.959 195.544 250.419 195.364 250.035 195.004C249.651 194.62 249.459 194.08 249.459 193.384C249.459 192.808 249.591 192.28 249.855 191.8C250.119 191.296 250.479 190.864 250.935 190.504C251.391 190.144 251.895 189.904 252.447 189.784C252.375 189.76 252.303 189.736 252.231 189.712C252.159 189.688 252.075 189.676 251.979 189.676ZM268.925 195.364C268.037 198.004 267.185 200.188 266.369 201.916C265.553 203.62 264.749 204.952 263.957 205.912C263.189 206.848 262.397 207.52 261.581 207.928C260.765 208.312 259.901 208.504 258.989 208.504C257.981 208.504 257.201 208.288 256.649 207.856C256.121 207.424 255.821 206.8 255.749 205.984C255.701 205.168 255.857 204.196 256.217 203.068L259.709 192.448C259.949 191.752 259.997 191.284 259.853 191.044C259.733 190.78 259.529 190.648 259.241 190.648C258.929 190.648 258.581 190.828 258.197 191.188C257.813 191.524 257.405 192.292 256.973 193.492L256.325 195.22H255.641L256.541 192.592C256.901 191.584 257.345 190.816 257.873 190.288C258.425 189.76 259.001 189.4 259.601 189.208C260.225 188.992 260.813 188.884 261.365 188.884C262.445 188.884 263.249 189.124 263.777 189.604C264.305 190.06 264.593 190.72 264.641 191.584C264.689 192.424 264.521 193.432 264.137 194.608L260.897 204.328C260.369 205.912 260.489 206.704 261.257 206.704C261.713 206.704 262.229 206.404 262.805 205.804C263.381 205.204 263.981 204.376 264.605 203.32C265.253 202.264 265.889 201.028 266.513 199.612C267.137 198.196 267.737 196.672 268.313 195.04C268.889 193.408 269.393 191.74 269.825 190.036L268.925 195.364ZM270.689 204.94C270.521 205.54 270.449 205.996 270.473 206.308C270.497 206.596 270.701 206.74 271.085 206.74C271.517 206.74 271.913 206.536 272.273 206.128C272.657 205.696 273.029 204.952 273.389 203.896L274.073 202.06H274.757L273.785 204.796C273.473 205.732 273.053 206.476 272.525 207.028C272.021 207.556 271.457 207.928 270.833 208.144C270.233 208.384 269.609 208.504 268.961 208.504C268.313 208.504 267.761 208.396 267.305 208.18C266.873 207.964 266.537 207.664 266.297 207.28C266.057 206.824 265.949 206.284 265.973 205.66C266.021 205.012 266.141 204.28 266.333 203.464L269.969 189.388C270.953 189.364 271.877 189.316 272.741 189.244C273.629 189.172 274.445 189.052 275.189 188.884L270.689 204.94ZM279.642 207.496C279.834 207.592 280.038 207.664 280.254 207.712C280.47 207.736 280.734 207.748 281.046 207.748C281.934 207.748 282.654 207.484 283.206 206.956C283.782 206.404 284.07 205.636 284.07 204.652C284.07 203.86 283.902 203.056 283.566 202.24C283.23 201.4 282.726 200.488 282.054 199.504C281.502 198.64 280.986 197.8 280.506 196.984C280.05 196.168 279.822 195.232 279.822 194.176C279.822 193.144 280.086 192.232 280.614 191.44C281.142 190.648 281.886 190.024 282.846 189.568C283.83 189.112 285.006 188.884 286.374 188.884C287.262 188.884 288.114 188.992 288.93 189.208C289.77 189.424 290.466 189.796 291.018 190.324C291.57 190.852 291.846 191.62 291.846 192.628C291.846 192.988 291.762 193.384 291.594 193.816C291.45 194.248 291.21 194.608 290.874 194.896C290.562 195.16 290.154 195.292 289.65 195.292C289.05 195.292 288.57 195.076 288.21 194.644C287.85 194.188 287.67 193.6 287.67 192.88C287.67 192.232 287.778 191.656 287.994 191.152C288.234 190.624 288.498 190.204 288.786 189.892C288.474 189.7 288.054 189.604 287.526 189.604C286.662 189.604 285.978 189.868 285.474 190.396C284.994 190.924 284.742 191.68 284.718 192.664C284.718 193.216 284.814 193.744 285.006 194.248C285.198 194.728 285.462 195.22 285.798 195.724C286.134 196.228 286.494 196.792 286.878 197.416C287.598 198.592 288.126 199.6 288.462 200.44C288.822 201.28 289.002 202.132 289.002 202.996C289.002 204.028 288.726 204.964 288.174 205.804C287.646 206.62 286.866 207.28 285.834 207.784C284.826 208.264 283.626 208.504 282.234 208.504C281.226 208.504 280.266 208.372 279.354 208.108C278.442 207.844 277.698 207.412 277.122 206.812C276.57 206.188 276.294 205.36 276.294 204.328C276.294 203.656 276.474 203.056 276.834 202.528C277.17 202 277.662 201.736 278.31 201.736C278.958 201.736 279.462 202.012 279.822 202.564C280.182 203.092 280.362 203.752 280.362 204.544C280.362 205.168 280.266 205.732 280.074 206.236C279.906 206.74 279.762 207.16 279.642 207.496ZM307.287 189.388L307.179 190.108H294.687L294.867 189.388H307.287ZM298.719 204.94C298.551 205.564 298.563 206.02 298.755 206.308C298.971 206.596 299.283 206.74 299.691 206.74C300.195 206.74 300.699 206.488 301.203 205.984C301.707 205.48 302.151 204.7 302.535 203.644L303.075 202.168H303.759L303.039 204.256C302.559 205.696 301.851 206.764 300.915 207.46C300.003 208.156 298.911 208.504 297.639 208.504C296.535 208.504 295.683 208.252 295.083 207.748C294.483 207.244 294.123 206.56 294.003 205.696C293.907 204.808 294.003 203.836 294.291 202.78L299.691 184.024C300.723 184 301.659 183.952 302.499 183.88C303.339 183.808 304.143 183.688 304.911 183.52L298.719 204.94ZM343.194 182.62H346.002C347.082 182.62 348.126 182.608 349.134 182.584C350.142 182.56 351.03 182.536 351.798 182.512L351.618 183.232C350.802 183.256 350.166 183.352 349.71 183.52C349.254 183.664 348.894 183.952 348.63 184.384C348.39 184.792 348.15 185.44 347.91 186.328L343.158 204.184C342.942 205.048 342.846 205.696 342.87 206.128C342.918 206.56 343.134 206.848 343.518 206.992C343.902 207.136 344.49 207.232 345.282 207.28L345.138 208C344.37 207.952 343.482 207.928 342.474 207.928C341.49 207.904 340.458 207.892 339.378 207.892C338.226 207.892 337.122 207.904 336.066 207.928C335.034 207.928 334.218 207.952 333.618 208L333.762 207.28C334.602 207.232 335.238 207.136 335.67 206.992C336.126 206.848 336.486 206.56 336.75 206.128C337.014 205.696 337.254 205.048 337.47 204.184L342.69 184.78L327.75 208.18H326.958L324.042 186.076L319.506 203.356C319.314 204.124 319.218 204.796 319.218 205.372C319.242 205.948 319.47 206.404 319.902 206.74C320.358 207.052 321.126 207.232 322.206 207.28L322.062 208C321.774 207.976 321.39 207.964 320.91 207.964C320.43 207.94 319.926 207.928 319.398 207.928C318.894 207.904 318.438 207.892 318.03 207.892C317.406 207.892 316.782 207.904 316.158 207.928C315.534 207.928 315.018 207.952 314.61 208L314.79 207.28C315.63 207.232 316.29 207.052 316.77 206.74C317.274 206.404 317.67 205.948 317.958 205.372C318.246 204.796 318.486 204.124 318.678 203.356L323.25 186.328C323.49 185.44 323.586 184.792 323.538 184.384C323.49 183.952 323.274 183.664 322.89 183.52C322.53 183.352 321.942 183.256 321.126 183.232L321.306 182.512C321.858 182.536 322.566 182.56 323.43 182.584C324.318 182.608 325.254 182.62 326.238 182.62C326.814 182.62 327.39 182.608 327.966 182.584C328.542 182.56 329.046 182.536 329.478 182.512L331.53 200.908L343.194 182.62ZM354.183 200.188C355.167 199.804 356.103 199.372 356.991 198.892C357.879 198.412 358.635 197.884 359.259 197.308C360.195 196.468 360.939 195.496 361.491 194.392C362.067 193.264 362.355 192.052 362.355 190.756C362.355 190.276 362.307 189.964 362.211 189.82C362.115 189.652 361.971 189.568 361.779 189.568C361.251 189.568 360.675 189.844 360.051 190.396C359.451 190.924 358.851 191.644 358.251 192.556C357.651 193.444 357.099 194.464 356.595 195.616C356.115 196.768 355.719 197.968 355.407 199.216C355.119 200.464 354.975 201.676 354.975 202.852C354.975 204.196 355.227 205.12 355.731 205.624C356.259 206.104 356.931 206.344 357.747 206.344C358.395 206.344 359.199 206.128 360.159 205.696C361.119 205.264 362.067 204.496 363.003 203.392L363.579 203.68C363.075 204.472 362.415 205.24 361.599 205.984C360.783 206.728 359.835 207.34 358.755 207.82C357.675 208.276 356.499 208.504 355.227 208.504C354.147 208.504 353.175 208.312 352.311 207.928C351.471 207.544 350.799 206.98 350.295 206.236C349.815 205.468 349.575 204.532 349.575 203.428C349.575 202.156 349.779 200.848 350.187 199.504C350.619 198.16 351.219 196.864 351.987 195.616C352.755 194.344 353.679 193.204 354.759 192.196C355.839 191.164 357.039 190.36 358.359 189.784C359.679 189.184 361.083 188.884 362.571 188.884C363.627 188.884 364.515 189.124 365.235 189.604C365.955 190.06 366.315 190.768 366.315 191.728C366.315 192.664 366.051 193.54 365.523 194.356C365.019 195.172 364.335 195.916 363.471 196.588C362.607 197.26 361.635 197.86 360.555 198.388C359.499 198.916 358.407 199.372 357.279 199.756C356.175 200.14 355.131 200.44 354.147 200.656L354.183 200.188ZM397.586 190.108L386.678 208.18H384.806L381.962 185.536C381.866 184.648 381.614 184.048 381.206 183.736C380.798 183.424 380.414 183.256 380.054 183.232L380.234 182.512C380.834 182.536 381.59 182.56 382.502 182.584C383.414 182.608 384.338 182.62 385.274 182.62C386.234 182.62 387.11 182.608 387.902 182.584C388.718 182.56 389.402 182.536 389.954 182.512L389.774 183.232C389.006 183.28 388.466 183.496 388.154 183.88C387.866 184.24 387.782 185.032 387.902 186.256L389.702 202.42L388.622 203.536L397.37 189.172L397.586 190.108ZM410.726 187.66C411.35 186.508 411.65 185.62 411.626 184.996C411.626 184.372 411.362 183.94 410.834 183.7C410.33 183.436 409.586 183.28 408.602 183.232L408.782 182.512C409.118 182.536 409.562 182.56 410.114 182.584C410.69 182.584 411.29 182.596 411.914 182.62C412.562 182.62 413.09 182.62 413.498 182.62C414.05 182.62 414.542 182.608 414.974 182.584C415.43 182.56 415.85 182.536 416.234 182.512L416.054 183.232C415.574 183.352 415.106 183.532 414.65 183.772C414.194 184.012 413.738 184.384 413.282 184.888C412.826 185.392 412.334 186.112 411.806 187.048L400.466 208.18H398.594L395.462 185.536C395.342 184.648 395.126 184.048 394.814 183.736C394.502 183.424 394.202 183.256 393.914 183.232L394.094 182.512C394.646 182.536 395.342 182.56 396.182 182.584C397.046 182.608 397.91 182.62 398.774 182.62C399.926 182.62 400.994 182.608 401.978 182.584C402.962 182.56 403.766 182.536 404.39 182.512L404.21 183.232C403.01 183.28 402.194 183.484 401.762 183.844C401.354 184.204 401.234 185.008 401.402 186.256L403.418 202.132L402.338 203.104L410.726 187.66ZM419.136 183.376C419.184 182.344 419.556 181.552 420.252 181C420.972 180.448 421.824 180.172 422.808 180.172C423.696 180.172 424.368 180.388 424.824 180.82C425.304 181.228 425.52 181.804 425.472 182.548C425.424 183.484 425.04 184.252 424.32 184.852C423.6 185.428 422.736 185.716 421.728 185.716C420.888 185.716 420.228 185.512 419.748 185.104C419.292 184.672 419.088 184.096 419.136 183.376ZM417.768 192.448C418.176 191.248 418.044 190.648 417.372 190.648C416.94 190.648 416.544 190.864 416.184 191.296C415.824 191.728 415.452 192.46 415.068 193.492L414.348 195.328H413.664L414.672 192.592C415.008 191.632 415.428 190.888 415.932 190.36C416.46 189.832 417.036 189.46 417.66 189.244C418.308 189.004 418.98 188.884 419.676 188.884C420.516 188.884 421.176 189.04 421.656 189.352C422.136 189.664 422.46 190.072 422.628 190.576C422.796 191.056 422.856 191.596 422.808 192.196C422.76 192.772 422.64 193.348 422.448 193.924L418.668 204.94C418.452 205.588 418.392 206.056 418.488 206.344C418.608 206.608 418.836 206.74 419.172 206.74C419.484 206.74 419.82 206.56 420.18 206.2C420.564 205.84 420.984 205.072 421.44 203.896L422.088 202.168H422.772L421.836 204.796C421.5 205.78 421.068 206.536 420.54 207.064C420.012 207.592 419.436 207.964 418.812 208.18C418.212 208.396 417.6 208.504 416.976 208.504C415.944 208.504 415.152 208.276 414.6 207.82C414.072 207.364 413.784 206.704 413.736 205.84C413.688 204.976 413.856 203.956 414.24 202.78L417.768 192.448ZM439.557 189.388L439.449 190.108H426.957L427.137 189.388H439.557ZM430.989 204.94C430.821 205.564 430.833 206.02 431.025 206.308C431.241 206.596 431.553 206.74 431.961 206.74C432.465 206.74 432.969 206.488 433.473 205.984C433.977 205.48 434.421 204.7 434.805 203.644L435.345 202.168H436.029L435.309 204.256C434.829 205.696 434.121 206.764 433.185 207.46C432.273 208.156 431.181 208.504 429.909 208.504C428.805 208.504 427.953 208.252 427.353 207.748C426.753 207.244 426.393 206.56 426.273 205.696C426.177 204.808 426.273 203.836 426.561 202.78L431.961 184.024C432.993 184 433.929 183.952 434.769 183.88C435.609 183.808 436.413 183.688 437.181 183.52L430.989 204.94ZM442.925 208H437.849L444.977 183.988C445.217 183.172 445.193 182.572 444.905 182.188C444.617 181.804 443.885 181.612 442.709 181.612L442.925 180.856C444.629 180.832 446.153 180.7 447.497 180.46C448.841 180.196 450.113 179.836 451.313 179.38L442.925 208ZM443.825 202.78C444.785 200.02 445.673 197.74 446.489 195.94C447.329 194.14 448.145 192.724 448.937 191.692C449.729 190.66 450.545 189.94 451.385 189.532C452.225 189.1 453.125 188.884 454.085 188.884C455.261 188.884 456.089 189.136 456.569 189.64C457.073 190.144 457.325 190.816 457.325 191.656C457.325 192.472 457.169 193.36 456.857 194.32L453.329 204.94C453.113 205.588 453.065 206.056 453.185 206.344C453.305 206.608 453.521 206.74 453.833 206.74C454.145 206.74 454.481 206.572 454.841 206.236C455.225 205.876 455.633 205.096 456.065 203.896L456.713 202.168H457.397L456.497 204.796C456.161 205.804 455.717 206.572 455.165 207.1C454.637 207.628 454.061 207.988 453.437 208.18C452.837 208.396 452.249 208.504 451.673 208.504C450.521 208.504 449.681 208.252 449.153 207.748C448.649 207.22 448.397 206.524 448.397 205.66C448.397 204.772 448.577 203.812 448.937 202.78L452.141 193.06C452.285 192.652 452.381 192.268 452.429 191.908C452.501 191.548 452.489 191.26 452.393 191.044C452.321 190.804 452.117 190.684 451.781 190.684C451.325 190.684 450.797 190.984 450.197 191.584C449.597 192.184 448.973 193.024 448.325 194.104C447.701 195.184 447.065 196.444 446.417 197.884C445.793 199.324 445.181 200.872 444.581 202.528C444.005 204.184 443.489 205.888 443.033 207.64L443.825 202.78ZM172.081 252.184C171.865 253.048 171.805 253.696 171.901 254.128C172.021 254.56 172.297 254.848 172.729 254.992C173.185 255.136 173.821 255.232 174.637 255.28L174.457 256C174.001 255.976 173.425 255.964 172.729 255.964C172.057 255.94 171.325 255.928 170.533 255.928C169.741 255.904 168.985 255.892 168.265 255.892C167.113 255.892 166.009 255.904 164.953 255.928C163.921 255.928 163.093 255.952 162.469 256L162.649 255.28C163.465 255.232 164.101 255.136 164.557 254.992C165.013 254.848 165.373 254.56 165.637 254.128C165.901 253.696 166.141 253.048 166.357 252.184L168.841 242.32L171.181 244.588L173.665 243.904L174.889 241.024L172.081 252.184ZM183.673 230.692C183.289 230.692 182.929 230.764 182.593 230.908C182.257 231.028 181.897 231.232 181.513 231.52C180.841 232 180.025 232.876 179.065 234.148C178.105 235.396 177.133 237.04 176.149 239.08C175.165 241.096 174.253 243.496 173.413 246.28L168.517 246.46C168.421 245.332 168.289 244.144 168.121 242.896C167.953 241.648 167.749 240.424 167.509 239.224C167.269 238 166.981 236.896 166.645 235.912C166.333 234.904 165.973 234.112 165.565 233.536C165.157 232.96 164.689 232.672 164.161 232.672C163.729 232.672 163.381 232.84 163.117 233.176C162.853 233.488 162.649 233.884 162.505 234.364L161.749 236.632C161.749 236.632 161.617 236.632 161.353 236.632C161.089 236.632 160.957 236.632 160.957 236.632L161.857 233.86C162.337 232.444 163.009 231.448 163.873 230.872C164.761 230.296 165.781 230.008 166.933 230.008C168.565 230.008 169.825 230.512 170.713 231.52C171.601 232.528 172.261 233.992 172.693 235.912C173.125 237.832 173.497 240.148 173.809 242.86C174.625 240.556 175.537 238.516 176.545 236.74C177.553 234.94 178.609 233.44 179.713 232.24C180.265 231.64 180.901 231.124 181.621 230.692C182.341 230.236 183.121 230.008 183.961 230.008C185.065 230.008 185.905 230.32 186.481 230.944C187.057 231.568 187.333 232.312 187.309 233.176C187.285 234.064 186.973 234.82 186.373 235.444C185.773 236.044 184.993 236.344 184.033 236.344C183.241 236.344 182.629 236.14 182.197 235.732C181.765 235.324 181.549 234.796 181.549 234.148C181.573 233.332 181.837 232.636 182.341 232.06C182.869 231.46 183.517 231.052 184.285 230.836C184.213 230.788 184.129 230.752 184.033 230.728C183.937 230.704 183.817 230.692 183.673 230.692ZM192.191 237.604C191.639 237.604 191.051 237.94 190.427 238.612C189.827 239.26 189.227 240.136 188.627 241.24C188.051 242.344 187.523 243.58 187.043 244.948C186.587 246.316 186.215 247.732 185.927 249.196C185.663 250.636 185.531 252.016 185.531 253.336C185.531 254.2 185.627 254.824 185.819 255.208C186.035 255.592 186.347 255.784 186.755 255.784C187.307 255.784 187.883 255.472 188.483 254.848C189.083 254.2 189.671 253.336 190.247 252.256C190.823 251.176 191.339 249.964 191.795 248.62C192.275 247.252 192.659 245.836 192.947 244.372C193.235 242.908 193.379 241.492 193.379 240.124C193.379 239.116 193.271 238.444 193.055 238.108C192.863 237.772 192.575 237.604 192.191 237.604ZM180.707 250.564C180.707 249.46 180.851 248.284 181.139 247.036C181.451 245.788 181.919 244.564 182.543 243.364C183.167 242.164 183.935 241.084 184.847 240.124C185.783 239.14 186.875 238.36 188.123 237.784C189.395 237.184 190.811 236.884 192.371 236.884C194.219 236.884 195.647 237.388 196.655 238.396C197.687 239.404 198.203 240.88 198.203 242.824C198.203 243.928 198.047 245.104 197.735 246.352C197.447 247.6 196.991 248.824 196.367 250.024C195.743 251.224 194.963 252.316 194.027 253.3C193.115 254.26 192.023 255.04 190.751 255.64C189.503 256.216 188.099 256.504 186.539 256.504C184.691 256.504 183.251 256 182.219 254.992C181.211 253.984 180.707 252.508 180.707 250.564ZM214.198 243.364C213.31 246.004 212.458 248.188 211.642 249.916C210.826 251.62 210.022 252.952 209.23 253.912C208.462 254.848 207.67 255.52 206.854 255.928C206.038 256.312 205.174 256.504 204.262 256.504C203.254 256.504 202.474 256.288 201.922 255.856C201.394 255.424 201.094 254.8 201.022 253.984C200.974 253.168 201.13 252.196 201.49 251.068L204.982 240.448C205.222 239.752 205.27 239.284 205.126 239.044C205.006 238.78 204.802 238.648 204.514 238.648C204.202 238.648 203.854 238.828 203.47 239.188C203.086 239.524 202.678 240.292 202.246 241.492L201.598 243.22H200.914L201.814 240.592C202.174 239.584 202.618 238.816 203.146 238.288C203.698 237.76 204.274 237.4 204.874 237.208C205.498 236.992 206.086 236.884 206.638 236.884C207.718 236.884 208.522 237.124 209.05 237.604C209.578 238.06 209.866 238.72 209.914 239.584C209.962 240.424 209.794 241.432 209.41 242.608L206.17 252.328C205.642 253.912 205.762 254.704 206.53 254.704C206.986 254.704 207.502 254.404 208.078 253.804C208.654 253.204 209.254 252.376 209.878 251.32C210.526 250.264 211.162 249.028 211.786 247.612C212.41 246.196 213.01 244.672 213.586 243.04C214.162 241.408 214.666 239.74 215.098 238.036L214.198 243.364ZM215.962 252.94C215.794 253.54 215.722 253.996 215.746 254.308C215.77 254.596 215.974 254.74 216.358 254.74C216.79 254.74 217.186 254.536 217.546 254.128C217.93 253.696 218.302 252.952 218.662 251.896L219.346 250.06H220.03L219.058 252.796C218.746 253.732 218.326 254.476 217.798 255.028C217.294 255.556 216.73 255.928 216.106 256.144C215.506 256.384 214.882 256.504 214.234 256.504C213.586 256.504 213.034 256.396 212.578 256.18C212.146 255.964 211.81 255.664 211.57 255.28C211.33 254.824 211.222 254.284 211.246 253.66C211.294 253.012 211.414 252.28 211.606 251.464L215.242 237.388C216.226 237.364 217.15 237.316 218.014 237.244C218.902 237.172 219.718 237.052 220.462 236.884L215.962 252.94ZM227.866 256H222.79L227.182 240.448C227.35 239.8 227.398 239.344 227.326 239.08C227.278 238.792 227.098 238.648 226.786 238.648C226.354 238.648 225.958 238.864 225.598 239.296C225.238 239.704 224.854 240.436 224.446 241.492L223.762 243.328H223.078L224.05 240.592C224.41 239.632 224.842 238.888 225.346 238.36C225.85 237.832 226.414 237.46 227.038 237.244C227.686 237.004 228.346 236.884 229.018 236.884C229.786 236.884 230.374 237.04 230.782 237.352C231.19 237.64 231.466 238.036 231.61 238.54C231.754 239.044 231.802 239.596 231.754 240.196C231.73 240.772 231.646 241.348 231.502 241.924L227.866 256ZM237.082 237.676C236.602 237.676 236.086 237.82 235.534 238.108C234.982 238.396 234.418 238.912 233.842 239.656C233.266 240.4 232.654 241.432 232.006 242.752C231.382 244.072 230.734 245.764 230.062 247.828C229.414 249.868 228.742 252.34 228.046 255.244L228.838 250.384C229.606 247.744 230.302 245.56 230.926 243.832C231.55 242.104 232.174 240.736 232.798 239.728C233.446 238.696 234.118 237.964 234.814 237.532C235.534 237.1 236.35 236.884 237.262 236.884C238.198 236.884 238.918 237.16 239.422 237.712C239.926 238.264 240.178 238.96 240.178 239.8C240.178 240.472 240.022 241.096 239.71 241.672C239.422 242.224 239.014 242.68 238.486 243.04C237.982 243.376 237.406 243.544 236.758 243.544C236.062 243.544 235.522 243.364 235.138 243.004C234.754 242.62 234.562 242.08 234.562 241.384C234.562 240.808 234.694 240.28 234.958 239.8C235.222 239.296 235.582 238.864 236.038 238.504C236.494 238.144 236.998 237.904 237.55 237.784C237.478 237.76 237.406 237.736 237.334 237.712C237.262 237.688 237.178 237.676 237.082 237.676ZM258.38 243.544L258.632 242.824H271.34L271.052 243.544H258.38ZM271.988 234.328C272.228 233.44 272.324 232.792 272.276 232.384C272.252 231.952 272.048 231.664 271.664 231.52C271.28 231.352 270.68 231.256 269.864 231.232L270.044 230.512C270.692 230.536 271.532 230.56 272.564 230.584C273.596 230.608 274.628 230.62 275.66 230.62C276.836 230.62 277.952 230.608 279.008 230.584C280.064 230.56 280.928 230.536 281.6 230.512L281.42 231.232C280.604 231.256 279.968 231.352 279.512 231.52C279.056 231.664 278.696 231.952 278.432 232.384C278.192 232.792 277.952 233.44 277.712 234.328L272.96 252.184C272.744 253.048 272.648 253.696 272.672 254.128C272.696 254.56 272.9 254.848 273.284 254.992C273.668 255.136 274.268 255.232 275.084 255.28L274.94 256C274.292 255.952 273.44 255.928 272.384 255.928C271.328 255.904 270.212 255.892 269.036 255.892C268.004 255.892 266.96 255.904 265.904 255.928C264.872 255.928 264.032 255.952 263.384 256L263.528 255.28C264.344 255.232 264.98 255.136 265.436 254.992C265.892 254.848 266.252 254.56 266.516 254.128C266.78 253.696 267.02 253.048 267.236 252.184L271.988 234.328ZM257.84 252.184C257.624 253.048 257.528 253.696 257.552 254.128C257.576 254.56 257.78 254.848 258.164 254.992C258.548 255.136 259.148 255.232 259.964 255.28L259.82 256C259.148 255.952 258.296 255.928 257.264 255.928C256.256 255.904 255.224 255.892 254.168 255.892C252.968 255.892 251.852 255.904 250.82 255.928C249.788 255.928 248.948 255.952 248.3 256L248.48 255.28C249.272 255.232 249.884 255.136 250.316 254.992C250.772 254.848 251.132 254.56 251.396 254.128C251.66 253.696 251.9 253.048 252.116 252.184L256.868 234.328C257.108 233.44 257.204 232.792 257.156 232.384C257.108 231.952 256.892 231.664 256.508 231.52C256.148 231.352 255.56 231.256 254.744 231.232L254.924 230.512C255.524 230.536 256.352 230.56 257.408 230.584C258.464 230.608 259.592 230.62 260.792 230.62C261.848 230.62 262.868 230.608 263.852 230.584C264.86 230.56 265.736 230.536 266.48 230.512L266.3 231.232C265.484 231.256 264.848 231.352 264.392 231.52C263.936 231.664 263.576 231.952 263.312 232.384C263.072 232.792 262.832 233.44 262.592 234.328L257.84 252.184ZM285.554 254.56C285.938 254.56 286.358 254.356 286.814 253.948C287.27 253.54 287.738 252.952 288.218 252.184C288.698 251.392 289.166 250.432 289.622 249.304C290.078 248.176 290.498 246.868 290.882 245.38L290.09 249.304C289.49 251.08 288.83 252.496 288.11 253.552C287.39 254.608 286.622 255.364 285.806 255.82C284.99 256.276 284.138 256.504 283.25 256.504C281.906 256.504 280.898 256.108 280.226 255.316C279.554 254.524 279.218 253.444 279.218 252.076C279.218 250.78 279.434 249.424 279.866 248.008C280.322 246.592 280.922 245.224 281.666 243.904C282.434 242.584 283.286 241.396 284.222 240.34C285.182 239.284 286.19 238.444 287.246 237.82C288.326 237.196 289.382 236.884 290.414 236.884C291.206 236.884 291.818 237.196 292.25 237.82C292.682 238.444 292.814 239.416 292.646 240.736L292.25 240.952C292.37 240.088 292.322 239.416 292.106 238.936C291.914 238.456 291.578 238.216 291.098 238.216C290.618 238.216 290.078 238.492 289.478 239.044C288.902 239.596 288.326 240.352 287.75 241.312C287.174 242.272 286.634 243.364 286.13 244.588C285.65 245.788 285.266 247.06 284.978 248.404C284.69 249.724 284.546 251.032 284.546 252.328C284.546 253.144 284.63 253.72 284.798 254.056C284.966 254.392 285.218 254.56 285.554 254.56ZM293.186 237.424C294.218 237.4 295.154 237.352 295.994 237.28C296.834 237.184 297.638 237.052 298.406 236.884L293.69 252.94C293.618 253.252 293.558 253.552 293.51 253.84C293.486 254.104 293.522 254.32 293.618 254.488C293.738 254.656 293.93 254.74 294.194 254.74C294.506 254.74 294.854 254.56 295.238 254.2C295.622 253.816 296.018 253.048 296.426 251.896L297.074 250.168H297.758L296.858 252.796C296.522 253.78 296.09 254.536 295.562 255.064C295.034 255.592 294.47 255.964 293.87 256.18C293.27 256.396 292.682 256.504 292.106 256.504C290.858 256.504 289.97 256.132 289.442 255.388C289.082 254.86 288.914 254.212 288.938 253.444C288.986 252.652 289.154 251.752 289.442 250.744L293.186 237.424ZM306.42 231.376C306.468 230.344 306.84 229.552 307.536 229C308.256 228.448 309.108 228.172 310.092 228.172C310.98 228.172 311.652 228.388 312.108 228.82C312.588 229.228 312.804 229.804 312.756 230.548C312.708 231.484 312.324 232.252 311.604 232.852C310.884 233.428 310.02 233.716 309.012 233.716C308.172 233.716 307.512 233.512 307.032 233.104C306.576 232.672 306.372 232.096 306.42 231.376ZM305.052 240.448C305.46 239.248 305.328 238.648 304.656 238.648C304.224 238.648 303.828 238.864 303.468 239.296C303.108 239.728 302.736 240.46 302.352 241.492L301.632 243.328H300.948L301.956 240.592C302.292 239.632 302.712 238.888 303.216 238.36C303.744 237.832 304.32 237.46 304.944 237.244C305.592 237.004 306.264 236.884 306.96 236.884C307.8 236.884 308.46 237.04 308.94 237.352C309.42 237.664 309.744 238.072 309.912 238.576C310.08 239.056 310.14 239.596 310.092 240.196C310.044 240.772 309.924 241.348 309.732 241.924L305.952 252.94C305.736 253.588 305.676 254.056 305.772 254.344C305.892 254.608 306.12 254.74 306.456 254.74C306.768 254.74 307.104 254.56 307.464 254.2C307.848 253.84 308.268 253.072 308.724 251.896L309.372 250.168H310.056L309.12 252.796C308.784 253.78 308.352 254.536 307.824 255.064C307.296 255.592 306.72 255.964 306.096 256.18C305.496 256.396 304.884 256.504 304.26 256.504C303.228 256.504 302.436 256.276 301.884 255.82C301.356 255.364 301.068 254.704 301.02 253.84C300.972 252.976 301.14 251.956 301.524 250.78L305.052 240.448ZM317.986 256H312.91L317.302 240.448C317.47 239.8 317.518 239.344 317.446 239.08C317.398 238.792 317.218 238.648 316.906 238.648C316.474 238.648 316.078 238.864 315.718 239.296C315.358 239.704 314.974 240.436 314.566 241.492L313.882 243.328H313.198L314.17 240.592C314.53 239.632 314.962 238.888 315.466 238.36C315.97 237.832 316.534 237.46 317.158 237.244C317.806 237.004 318.466 236.884 319.138 236.884C319.906 236.884 320.494 237.04 320.902 237.352C321.31 237.64 321.586 238.036 321.73 238.54C321.874 239.044 321.922 239.596 321.874 240.196C321.85 240.772 321.766 241.348 321.622 241.924L317.986 256ZM327.202 237.676C326.722 237.676 326.206 237.82 325.654 238.108C325.102 238.396 324.538 238.912 323.962 239.656C323.386 240.4 322.774 241.432 322.126 242.752C321.502 244.072 320.854 245.764 320.182 247.828C319.534 249.868 318.862 252.34 318.166 255.244L318.958 250.384C319.726 247.744 320.422 245.56 321.046 243.832C321.67 242.104 322.294 240.736 322.918 239.728C323.566 238.696 324.238 237.964 324.934 237.532C325.654 237.1 326.47 236.884 327.382 236.884C328.318 236.884 329.038 237.16 329.542 237.712C330.046 238.264 330.298 238.96 330.298 239.8C330.298 240.472 330.142 241.096 329.83 241.672C329.542 242.224 329.134 242.68 328.606 243.04C328.102 243.376 327.526 243.544 326.878 243.544C326.182 243.544 325.642 243.364 325.258 243.004C324.874 242.62 324.682 242.08 324.682 241.384C324.682 240.808 324.814 240.28 325.078 239.8C325.342 239.296 325.702 238.864 326.158 238.504C326.614 238.144 327.118 237.904 327.67 237.784C327.598 237.76 327.526 237.736 327.454 237.712C327.382 237.688 327.298 237.676 327.202 237.676ZM340.383 231.988C340.383 233.5 339.903 234.916 338.943 236.236C337.983 237.556 336.675 238.588 335.019 239.332L334.839 238.756C335.895 238.228 336.795 237.544 337.539 236.704C338.283 235.864 338.691 234.928 338.763 233.896C338.451 234.208 338.103 234.46 337.719 234.652C337.335 234.844 336.927 234.94 336.495 234.94C335.847 234.94 335.331 234.772 334.947 234.436C334.587 234.1 334.407 233.62 334.407 232.996C334.407 232.348 334.563 231.748 334.875 231.196C335.211 230.644 335.655 230.212 336.207 229.9C336.759 229.564 337.359 229.396 338.007 229.396C338.775 229.396 339.363 229.612 339.771 230.044C340.179 230.452 340.383 231.1 340.383 231.988ZM347.475 231.988C347.475 233.5 346.995 234.916 346.035 236.236C345.075 237.556 343.767 238.588 342.111 239.332L341.931 238.756C342.963 238.228 343.851 237.544 344.595 236.704C345.339 235.864 345.747 234.928 345.819 233.896C345.507 234.208 345.159 234.46 344.775 234.652C344.391 234.844 343.995 234.94 343.587 234.94C342.915 234.94 342.399 234.772 342.039 234.436C341.679 234.1 341.499 233.62 341.499 232.996C341.499 232.348 341.655 231.748 341.967 231.196C342.303 230.644 342.735 230.212 343.263 229.9C343.815 229.564 344.427 229.396 345.099 229.396C345.867 229.396 346.455 229.612 346.863 230.044C347.271 230.452 347.475 231.1 347.475 231.988Z" fill="#4B5A69"/>
<path d="M60 147H446" stroke="#4B5A69" stroke-width="3" stroke-dasharray="8 8"/>
</svg>
